<svg width="64" height="64" viewBox="0 0 64 64" fill="none" xmlns="http://www.w3.org/2000/svg">
<g clip-path="url(#clip0_627_1406)">
<path d="M32 58.6668C17.272 58.6668 5.33334 46.7282 5.33334 32.0002C5.33334 17.2722 17.272 5.3335 32 5.3335C46.728 5.3335 58.6667 17.2722 58.6667 32.0002C58.6667 46.7282 46.728 58.6668 32 58.6668ZM18.7013 48.6828C22.4761 51.7007 27.1671 53.3412 32 53.3335C37.2533 53.3335 42.0613 51.4348 45.7787 48.2882C44.0419 46.5061 41.9655 45.0905 39.6721 44.125C37.3787 43.1594 34.915 42.6636 32.4267 42.6668C29.8469 42.6639 27.2947 43.1971 24.9319 44.2327C22.5691 45.2684 20.4474 46.7838 18.7013 48.6828ZM14.976 44.8535C17.2172 42.475 19.9218 40.5807 22.923 39.2874C25.9243 37.9941 29.1586 37.3291 32.4267 37.3335C35.5777 37.3294 38.6986 37.9478 41.61 39.1532C44.5214 40.3586 47.166 42.1272 49.392 44.3575C51.6749 41.1445 53.023 37.3619 53.2868 33.4293C53.5507 29.4967 52.7199 25.5679 50.8866 22.0787C49.0534 18.5896 46.2894 15.6765 42.9012 13.6627C39.5131 11.6489 35.6333 10.6131 31.6923 10.6702C27.7513 10.7273 23.9031 11.8751 20.5747 13.9862C17.2463 16.0973 14.5679 19.0892 12.8365 22.63C11.1051 26.1708 10.3885 30.1221 10.7662 34.0454C11.1438 37.9687 12.601 41.708 14.976 44.8535ZM32 34.6668C29.171 34.6668 26.4579 33.543 24.4575 31.5426C22.4571 29.5422 21.3333 26.8291 21.3333 24.0002C21.3333 21.1712 22.4571 18.4581 24.4575 16.4577C26.4579 14.4573 29.171 13.3335 32 13.3335C34.829 13.3335 37.5421 14.4573 39.5425 16.4577C41.5429 18.4581 42.6667 21.1712 42.6667 24.0002C42.6667 26.8291 41.5429 29.5422 39.5425 31.5426C37.5421 33.543 34.829 34.6668 32 34.6668ZM32 29.3335C33.4145 29.3335 34.771 28.7716 35.7712 27.7714C36.7714 26.7712 37.3333 25.4146 37.3333 24.0002C37.3333 22.5857 36.7714 21.2291 35.7712 20.2289C34.771 19.2287 33.4145 18.6668 32 18.6668C30.5855 18.6668 29.229 19.2287 28.2288 20.2289C27.2286 21.2291 26.6667 22.5857 26.6667 24.0002C26.6667 25.4146 27.2286 26.7712 28.2288 27.7714C29.229 28.7716 30.5855 29.3335 32 29.3335Z" fill="#5B5B5B"/>
</g>
<defs>
<clipPath id="clip0_627_1406">
<rect width="64" height="64" fill="white"/>
</clipPath>
</defs>
</svg>
